# xmcd
#
# Track frame offsets: 
#        150
#        21185
#        50192
#        74275
#        104305
#        127365
#        142865
#        166897
#
# Disc length: 2789 seconds
#
# Revision: 0
# Processed by: cddbd v1.4PL0 Copyright (c) Steve Scherf et al.
# Submitted via: ExactAudioCopy v0.90b4
#
DISCID=730ae308
DTITLE=Junior Wells - Undisputed Godfather Of Blues
DYEAR=1993
DGENRE=Blues
TTITLE0=Junior's Nuts
TTITLE1=You Know What I Saw
TTITLE2=Sweet Home Chicago
TTITLE3=Don't Nobody Know
TTITLE4=Help Me
TTITLE5=What My Mamma Told Me
TTITLE6=When Things Go Wrong
TTITLE7=Little Red Rooster
EXTD=
EXTT0=
EXTT1=
EXTT2=
EXTT3=
EXTT4=
EXTT5=
EXTT6=
EXTT7=
PLAYORDER=
